{"title":"Horrid.Henry.The.Movie.2011.DVDRip.XVID.AC3.HQ.Hive-CM8.[MoviesP","uid":6847174,"size":1516184012,"categoryP":"video","categoryS":"movies","magnet":"?xt=urn:btih:9f2aa150028c813685a1c32cee38c00acf047ad5&amp;dn=Horrid.Henry.The.Movie.2011.DVDRip.XVID.AC3.HQ.Hive-CM8.%5BMoviesP&amp;tr=udp%3A%2F%2Ftracker.openbittorrent.com%3A80&amp;tr=udp%3A%2F%2Fopen.demonii.com%3A1337&amp;tr=udp%3A%2F%2Ftracker.coppersurfer.tk%3A6969&amp;tr=udp%3A%2F%2Fexodus.desync.com%3A6969","seeders":0,"leechers":0,"uploader":"moviesp2p","files":3,"time":1322394293,"description":"CM8 Doing It Right The First Time :D\n\n\nSource: DVD-R Legend-RG\nthx\n\nEncode:\nDVD had great quality, was already more than bright, so just sharpness, rgb and denoise.\ngot very nice\nenjoy\n\nVideo: 720x384 @bitrate 1800 2pass\nAudio: English AC3 5.1 @448\nSample: Yes, included[/b]\n\n &lt;a href=&quot;\nhttp://www.imdb.com/title/tt1684555/&quot; rel=&quot;nofollow&quot; target=&quot;_NEW&quot;&gt;\nhttp://www.imdb.com/title/tt1684555/&lt;/a&gt;\n\n\nGeneral\nComplete name                  : Horrid.Henry.The.Movie.2011.DVDRip.XVID.AC3.HQ.Hive-CM8.avi\nFormat                         : AVI\nFormat/Info                    : Audio Video Interleave\nFile size                      : 1.40 GiB\nDuration                       : 1h 29mn\nOverall bit rate               : 2 252 Kbps\nWriting application            : Nandub v1.0rc2\nWriting library                : Nandub build 1853/release\n\nVideo\nID                             : 0\nFormat                         : MPEG-4 Visual\nFormat profile                 : Advanced Simple@L5\nFormat settings, BVOP          : 2\nFormat settings, QPel          : Yes\nFormat settings, GMC           : No warppoints\nFormat settings, Matrix        : Default (H.263)\nMuxing mode                    : Packed bitstream\nCodec ID                       : XVID\nCodec ID/Hint                  : XviD\nDuration                       : 1h 29mn\nBit rate                       : 1 794 Kbps\nWidth                          : 720 pixels\nHeight                         : 384 pixels\nDisplay aspect ratio           : 1.875\nFrame rate                     : 25.000 fps\nColor space                    : YUV\nChroma subsampling             : 4:2:0\nBit depth                      : 8 bits\nScan type                      : Progressive\nCompression mode               : Lossy\nBits/(Pixel*Frame)             : 0.260\nStream size                    : 1.12 GiB (80%)\nWriting library                : XviD 1.2.1 (UTC 2008-12-04)\n\nAudio\nID                             : 1\nFormat                         : AC-3\nFormat/Info                    : Audio Coding 3\nMode extension                 : CM (complete main)\nCodec ID                       : 2000\nDuration                       : 1h 29mn\nBit rate mode                  : Constant\nBit rate                       : 448 Kbps\nChannel(s)                     : 6 channels\nChannel positions              : Front: L C R, Side: L R, LFE\nSampling rate                  : 48.0 KHz\nBit depth                      : 16 bits\nCompression mode               : Lossy\nStream size                    : 285 MiB (20%)\nAlignment                      : Split accross interleaves\nInterleave, duration           : 40 ms (1.00 video frame)\nInterleave, preload duration   : 500 ms\n\n\nPlot:\nHorrid Henry finds himself doing things he never ever thought he'd do, and then some.\n\n\nCast:\nAnjelica Huston    ...    Miss Battleaxe\nRichard E. Grant   ...    Vic Van Wrinkle\nParminder Nagra    ...    Miss Lovely\nTheo Stevenson     ...    Horrid Henry\n\n\n[img]http://img210.imageshack.us/img210/9793/55760657.png[/img]\n[img]http://img259.imageshack.us/img259/2217/hoho.png[/img]\n[img]http://img217.imageshack.us/img217/7204/hohohou.png[/img]\n[img]http://img849.imageshack.us/img849/421/hohohoho.png[/img]\n[img]http://img7.imageshack.us/img7/4703/hohohohoho.png[/img]\n[img]http://img705.imageshack.us/img705/6033/hohohohohoho.png[/img]\n[img]http://img411.imageshack.us/img411/5379/hohohohohohohhoo.png[/img]\n[img]http://img28.imageshack.us/img28/3085/hohohohohohoho.png[/img]\n","torrent":{"xt":"urn:btih:9f2aa150028c813685a1c32cee38c00acf047ad5","amp;dn":"Horrid.Henry.The.Movie.2011.DVDRip.XVID.AC3.HQ.Hive-CM8.%5BMoviesP","amp;tr":["udp%3A%2F%2Ftracker.openbittorrent.com%3A80","udp%3A%2F%2Fopen.demonii.com%3A1337","udp%3A%2F%2Ftracker.coppersurfer.tk%3A6969","udp%3A%2F%2Fexodus.desync.com%3A6969"],"infoHash":"9f2aa150028c813685a1c32cee38c00acf047ad5","infoHashBuffer":{"type":"Buffer","data":[159,42,161,80,2,140,129,54,133,161,195,44,238,56,192,10,207,4,122,213]},"announce":[],"urlList":[]}}